<?xml version="1.0" encoding="utf-8"?>
<!-- Svg Vector Icons : http://www.onlinewebfonts.com/icon -->
<!DOCTYPE svg PUBLIC "-//W3C//DTD SVG 1.1//EN" "http://www.w3.org/Graphics/SVG/1.1/DTD/svg11.dtd">
<svg version="1.1" xmlns="http://www.w3.org/2000/svg" xmlns:xlink="http://www.w3.org/1999/xlink" x="0px" y="0px" viewBox="0 0 256 256" enable-background="new 0 0 256 256" xml:space="preserve">
<metadata> Svg Vector Icons : http://www.onlinewebfonts.com/icon </metadata>
<g><g><path fill="#000000" d="M240,211L191,162.1c-0.7-0.7-1.4-1.2-2.2-1.8c9.9-15.2,15.7-33.4,15.7-53c0-53.7-43.5-97.3-97.3-97.3C53.6,10.1,10,53.6,10,107.4c0,53.7,43.6,97.3,97.3,97.3c19.6,0,37.7-5.8,53-15.8c0.6,0.7,1.1,1.5,1.7,2.1l49.1,48.9c4,4,9.2,6,14.5,6c5.3,0,10.5-2,14.5-6C248,231.9,248,219,240,211 M107.3,173.9c-36.7,0-66.6-29.9-66.6-66.6c0-36.7,29.9-66.6,66.6-66.6c36.7,0,66.5,29.9,66.5,66.6S143.9,173.9,107.3,173.9"/><path fill="#000000" d="M69.6,129.2L69.6,129.2c-3.5,0-6.4-2.9-6.4-6.4c0-3.5,2.9-6.4,6.4-6.4h44.8c3.5,0,6.4,2.9,6.4,6.4c0,3.5-2.9,6.4-6.4,6.4H69.6L69.6,129.2L69.6,129.2L69.6,129.2z"/><path fill="#000000" d="M69.6,99.7L69.6,99.7c-3.5,0-6.4-2.9-6.4-6.4c0-3.5,2.9-6.4,6.4-6.4h80.6c3.5,0,6.4,2.9,6.4,6.4c0,3.5-2.9,6.4-6.4,6.4H69.6L69.6,99.7L69.6,99.7L69.6,99.7z"/></g></g>
</svg>